<?xml version="1.0" encoding="UTF-8" standalone="no"?>
<!DOCTYPE svg PUBLIC "-//W3C//DTD SVG 1.1//EN" "http://www.w3.org/Graphics/SVG/1.1/DTD/svg11.dtd">
<svg xmlns="http://www.w3.org/2000/svg" version="1.1" viewBox="0.00 0.00 500.00 500.00">
<g stroke-width="2.00" fill="none" stroke-linecap="butt">
<path stroke="#7f2e00" vector-effect="non-scaling-stroke" d="
  M 191.69 224.61
  L 191.41 235.87"
/>
<path stroke="#7f2e00" vector-effect="non-scaling-stroke" d="
  M 124.78 249.63
  L 121.51 240.32"
/>
<path stroke="#7f2e00" vector-effect="non-scaling-stroke" d="
  M 162.98 220.03
  L 164.32 222.49"
/>
<path stroke="#7f2e00" vector-effect="non-scaling-stroke" d="
  M 158.62 222.64
  Q 158.18 221.47 156.88 220.56"
/>
<path stroke="#7f2e00" vector-effect="non-scaling-stroke" d="
  M 129.54 232.01
  Q 128.76 236.22 129.67 241.33"
/>
<path stroke="#7f2e00" vector-effect="non-scaling-stroke" d="
  M 184.29 228.31
  L 183.96 224.41"
/>
</g>
<path fill="#000000" d="
  M 191.69 224.61
  L 191.41 235.87
  Q 184.24 262.28 159.19 265.08
  C 144.61 266.72 132.86 261.75 124.78 249.63
  L 121.51 240.32
  C 119.67 224.46 129.90 211.24 146.02 210.87
  Q 156.59 210.63 162.98 220.03
  L 164.32 222.49
  C 168.39 233.65 162.87 243.25 152.24 247.16
  A 0.19 0.19 0.0 0 1 151.99 247.01
  Q 151.97 246.87 151.94 246.72
  A 0.35 0.34 70.2 0 1 152.11 246.35
  C 159.76 242.03 165.75 230.20 158.62 222.64
  Q 158.18 221.47 156.88 220.56
  C 145.93 210.70 131.74 218.88 129.54 232.01
  Q 128.76 236.22 129.67 241.33
  C 132.18 254.86 142.16 263.11 155.94 262.97
  C 173.95 262.78 185.91 245.81 184.29 228.31
  L 183.96 224.41
  C 179.66 207.23 165.74 199.27 151.73 189.47
  C 140.71 181.75 133.62 171.22 137.65 157.48
  C 142.73 140.12 163.64 138.27 175.53 149.22
  A 1.08 1.06 21.5 0 1 175.88 150.01
  L 176.01 159.02
  A 0.47 0.47 0.0 0 1 175.08 159.14
  Q 171.84 146.52 160.18 144.76
  C 145.90 142.60 136.61 157.29 144.39 169.30
  C 146.68 172.83 149.84 175.68 153.66 178.40
  C 161.43 183.93 171.15 190.82 176.73 195.94
  Q 189.32 207.49 191.69 224.61
  Z"
/>
<path fill="#000000" d="
  M 207.63 214.18
  Q 205.08 219.98 202.71 225.88
  C 201.82 228.12 201.88 229.75 203.79 231.24
  A 0.45 0.45 0.0 0 1 203.51 232.05
  L 195.98 232.07
  A 0.36 0.36 0.0 0 1 195.76 231.43
  Q 199.00 228.78 200.19 225.98
  Q 213.13 195.64 226.29 164.89
  A 0.61 0.61 0.0 0 1 227.41 164.90
  Q 240.00 195.03 252.75 225.49
  C 253.88 228.20 255.39 229.75 257.72 231.26
  A 0.42 0.42 0.0 0 1 257.49 232.04
  L 242.74 232.04
  A 0.47 0.47 0.0 0 1 242.46 231.20
  C 244.57 229.61 245.04 227.74 243.99 225.17
  Q 241.73 219.64 239.42 214.19
  Q 239.24 213.75 238.76 213.75
  L 208.29 213.75
  Q 207.82 213.75 207.63 214.18
  Z
  M 209.23 210.59
  A 0.35 0.35 0.0 0 0 209.55 211.08
  L 237.57 211.12
  A 0.35 0.35 0.0 0 0 237.90 210.64
  L 223.94 177.34
  A 0.35 0.35 0.0 0 0 223.30 177.34
  L 209.23 210.59
  Z"
/>
<path fill="#000000" d="
  M 310.84 197.20
  Q 310.59 185.11 310.79 172.75
  Q 310.85 168.95 307.89 166.97
  A 0.61 0.61 0.0 0 1 308.23 165.85
  L 315.97 165.84
  A 0.58 0.58 0.0 0 1 316.30 166.89
  C 313.92 168.52 313.31 170.32 313.31 173.32
  Q 313.32 199.79 313.29 226.26
  Q 313.29 228.91 316.27 231.33
  A 0.41 0.41 0.0 0 1 316.01 232.06
  L 307.98 232.06
  A 0.37 0.37 0.0 0 1 307.75 231.40
  Q 310.76 228.88 310.76 226.77
  Q 310.77 218.48 310.73 210.22
  Q 310.72 209.65 310.29 209.27
  L 270.64 175.38
  A 0.26 0.26 0.0 0 0 270.21 175.58
  Q 270.26 200.87 270.20 226.26
  Q 270.20 228.90 273.06 231.25
  A 0.45 0.45 0.0 0 1 272.77 232.05
  L 264.99 232.04
  A 0.41 0.41 0.0 0 1 264.73 231.31
  Q 267.61 228.98 267.61 225.76
  Q 267.59 198.91 267.59 172.09
  C 267.59 169.64 266.54 168.12 264.68 166.80
  A 0.51 0.51 0.0 0 1 264.98 165.88
  L 272.77 165.94
  A 1.20 1.16 -23.6 0 1 273.55 166.23
  L 310.21 197.50
  A 0.38 0.38 0.0 0 0 310.84 197.20
  Z"
/>
<path fill="#000000" d="
  M 351.57 168.79
  Q 351.45 197.15 351.42 225.50
  Q 351.42 229.07 354.34 231.07
  A 0.54 0.54 0.0 0 1 354.04 232.05
  L 341.00 232.03
  Q 339.84 232.03 340.65 231.20
  Q 343.34 228.43 343.34 226.00
  Q 343.32 197.37 343.33 168.61
  A 0.43 0.43 0.0 0 0 342.91 168.18
  Q 337.32 168.12 331.68 168.18
  C 328.32 168.22 326.12 169.40 323.94 171.68
  A 0.45 0.45 0.0 0 1 323.18 171.24
  L 324.60 166.38
  Q 324.74 165.91 325.23 165.91
  L 382.76 165.88
  A 0.69 0.69 0.0 0 1 383.42 166.37
  L 384.82 171.22
  A 0.44 0.44 0.0 0 1 384.08 171.65
  C 381.97 169.48 379.87 168.28 376.64 168.22
  Q 364.39 167.98 352.13 168.22
  Q 351.57 168.24 351.57 168.79
  Z"
/>
<path fill="#000000" d="
  M 366.41 187.61
  Q 365.59 186.44 364.45 185.66
  A 0.48 0.48 0.0 0 1 364.72 184.79
  L 377.97 184.80
  A 0.57 0.56 29.3 0 1 378.27 185.85
  Q 375.61 187.46 375.57 190.50
  Q 375.35 208.13 375.31 225.77
  Q 375.30 228.90 378.27 231.31
  A 0.42 0.42 0.0 0 1 378.01 232.05
  L 364.75 232.03
  A 0.38 0.37 -65.3 0 1 364.51 231.37
  C 366.39 229.75 367.37 228.58 367.42 225.93
  Q 367.80 208.06 367.21 190.23
  Q 367.16 188.66 366.41 187.61
  Z"
/>
<path fill="#fe5b00" d="
  M 162.98 220.03
  Q 173.65 220.12 183.96 224.41
  L 184.29 228.31
  Q 175.34 222.12 164.32 222.49
  L 162.98 220.03
  Z"
/>
<path fill="#fe5b00" d="
  M 156.88 220.56
  Q 158.18 221.47 158.62 222.64
  Q 140.51 226.10 129.67 241.33
  Q 128.76 236.22 129.54 232.01
  Q 141.77 222.38 156.88 220.56
  Z"
/>
<path fill="#fe5b00" d="
  M 191.69 224.61
  L 192.55 225.16
  Q 192.99 225.44 193.00 225.97
  Q 193.04 230.57 192.93 235.21
  Q 192.91 235.90 192.52 235.99
  Q 192.13 236.07 191.41 235.87
  L 191.69 224.61
  Z"
/>
<path fill="#fe5b00" d="
  M 121.51 240.32
  L 124.78 249.63
  C 111.84 280.02 122.98 314.57 153.16 328.15
  C 161.32 331.82 180.54 334.99 188.04 327.94
  C 192.04 324.17 191.65 320.26 191.68 314.97
  Q 191.81 294.18 191.69 273.39
  Q 191.69 272.87 191.17 272.87
  Q 178.21 272.76 165.44 272.89
  C 163.36 272.91 161.63 273.85 160.63 275.53
  A 0.51 0.51 0.0 0 1 159.68 275.26
  L 159.73 270.79
  Q 159.73 270.06 160.46 270.06
  L 202.52 270.15
  A 0.58 0.58 0.0 0 1 202.81 271.23
  C 200.56 272.55 199.98 274.21 199.98 276.89
  Q 199.99 298.29 199.97 319.68
  C 199.97 322.48 200.67 323.93 202.88 325.42
  Q 203.44 325.80 202.81 326.07
  Q 195.37 329.18 192.34 330.31
  C 159.31 342.67 122.53 329.49 112.47 293.76
  Q 104.31 264.78 121.51 240.32
  Z"
/>
<path fill="#fe5b00" d="
  M 222.71 295.45
  Q 220.06 301.69 217.41 308.01
  Q 216.48 310.21 219.04 312.37
  A 0.42 0.41 64.9 0 1 218.78 313.10
  L 211.00 313.09
  A 0.30 0.30 0.0 0 1 210.81 312.55
  Q 214.15 309.88 214.75 308.48
  Q 228.15 277.15 241.44 246.03
  A 0.64 0.64 0.0 0 1 242.62 246.04
  Q 255.50 276.87 268.06 306.95
  Q 269.55 310.52 272.94 312.26
  A 0.44 0.44 0.0 0 1 272.74 313.09
  L 257.74 313.12
  A 0.38 0.38 0.0 0 1 257.52 312.44
  Q 259.63 310.88 259.81 308.19
  A 1.45 1.35 -56.2 0 0 259.70 307.51
  L 254.64 295.49
  Q 254.42 294.96 253.84 294.96
  L 223.49 294.93
  Q 222.93 294.93 222.71 295.45
  Z
  M 224.40 291.66
  A 0.33 0.33 0.0 0 0 224.71 292.12
  L 252.73 292.16
  A 0.33 0.33 0.0 0 0 253.04 291.71
  L 239.08 258.36
  A 0.33 0.33 0.0 0 0 238.47 258.36
  L 224.40 291.66
  Z"
/>
<path fill="#fe5b00" d="
  M 286.25 252.47
  Q 286.11 279.62 286.25 306.92
  C 286.26 309.63 287.37 310.86 289.23 312.53
  A 0.34 0.33 -23.7 0 1 289.00 313.11
  L 280.99 313.11
  A 0.37 0.37 0.0 0 1 280.76 312.45
  C 282.82 310.76 283.75 309.37 283.75 306.54
  Q 283.76 280.06 283.75 253.61
  C 283.75 251.08 283.10 249.36 280.94 248.19
  A 0.56 0.56 0.0 0 1 281.21 247.13
  L 292.59 247.21
  A 0.84 0.81 71.7 0 1 293.26 247.56
  L 312.88 275.20
  Q 313.18 275.61 313.45 275.18
  L 330.74 247.83
  A 1.27 1.26 16.0 0 1 331.81 247.24
  L 341.53 247.14
  A 0.52 0.52 0.0 0 1 341.82 248.10
  C 339.68 249.50 339.02 251.28 339.02 253.94
  Q 339.03 280.60 339.01 307.26
  Q 339.00 310.14 341.99 312.44
  A 0.38 0.38 0.0 0 1 341.75 313.12
  L 328.00 313.13
  A 0.37 0.37 0.0 0 1 327.76 312.47
  C 329.85 310.71 330.73 309.26 330.73 306.37
  Q 330.74 279.42 330.74 252.65
  A 0.27 0.27 0.0 0 0 330.24 252.50
  L 310.09 284.41
  Q 309.70 285.03 309.28 284.43
  L 286.66 252.34
  A 0.23 0.23 0.0 0 0 286.25 252.47
  Z"
/>
<path fill="#fe5b00" d="
  M 361.01 274.99
  L 361.01 310.49
  Q 361.01 310.99 361.52 310.99
  Q 374.12 311.03 386.58 311.01
  C 390.96 311.00 393.59 310.56 396.44 307.55
  A 0.45 0.45 0.0 0 1 397.20 307.99
  L 395.74 312.72
  A 0.53 0.51 7.6 0 1 395.25 313.08
  L 349.85 313.11
  A 0.35 0.35 0.0 0 1 349.66 312.47
  C 352.24 310.76 352.73 308.71 352.73 305.52
  Q 352.72 279.38 352.62 253.25
  Q 352.60 249.89 349.94 248.16
  A 0.55 0.54 -28.3 0 1 350.24 247.16
  L 391.35 247.11
  A 0.67 0.67 0.0 0 1 391.99 247.59
  L 393.39 252.44
  A 0.37 0.37 0.0 0 1 392.77 252.80
  C 390.22 250.18 387.97 249.25 384.12 249.24
  Q 372.80 249.22 361.50 249.27
  Q 361.01 249.27 361.01 249.76
  L 361.01 271.58
  Q 361.01 272.14 361.58 272.14
  L 377.82 272.12
  Q 378.55 272.12 379.09 271.62
  L 381.76 269.14
  A 0.38 0.38 0.0 0 1 382.40 269.42
  L 382.45 277.11
  A 0.45 0.45 0.0 0 1 381.63 277.38
  C 380.26 275.45 378.65 274.49 376.14 274.42
  Q 368.84 274.21 361.55 274.43
  Q 361.01 274.45 361.01 274.99
  Z"
/>
</svg>
